HIERARCHY
ROOT Hips
{
	OFFSET 0.000000 103.266502 0.000000
	CHANNELS 6 Xposition Yposition Zposition Xrotation Yrotation Zrotation 
	JOINT Spine
	{
		OFFSET -0.002400 12.777504 0.315300
		CHANNELS 3 Xrotation Yrotation Zrotation
		JOINT Spine1
		{
			OFFSET -0.002067 5.816869 0.032633
			CHANNELS 3 Xrotation Yrotation Zrotation
			JOINT Spine1_split
			{
				OFFSET -0.002067 5.816869 0.032633
				CHANNELS 3 Xrotation Yrotation Zrotation
				JOINT Spine2
				{
					OFFSET -0.002067 5.816869 0.032633
					CHANNELS 3 Xrotation Yrotation Zrotation
					JOINT Neck
					{
						OFFSET -0.003700 21.199493 -0.826900
						CHANNELS 3 Xrotation Yrotation Zrotation
						JOINT Head
						{
							OFFSET 0.000000 20.442200 4.834800
							CHANNELS 3 Xrotation Yrotation Zrotation
							JOINT HeadTop_End
							{
								OFFSET 0.000000 34.668396 4.968400
								CHANNELS 3 Xrotation Yrotation Zrotation
								End Site
								{
									OFFSET 0.000000 0.000000 0.000000
								}
							}
						}
					}
					JOINT LeftShoulder
					{
						OFFSET 3.288150 8.794197 -1.372250
						CHANNELS 3 Xrotation Yrotation Zrotation
						JOINT LeftShoulder_split
						{
							OFFSET 3.288150 8.794197 -1.372250
							CHANNELS 3 Xrotation Yrotation Zrotation
							JOINT LeftArm
							{
								OFFSET 11.953299 -2.279007 -0.146200
								CHANNELS 3 Xrotation Yrotation Zrotation
								JOINT LeftForeArm
								{
									OFFSET 18.448900 0.000000 0.000000
									CHANNELS 3 Xrotation Yrotation Zrotation
									JOINT LeftHand
									{
										OFFSET 29.527798 0.000000 0.000000
										CHANNELS 3 Xrotation Yrotation Zrotation
										JOINT LeftHandThumb1
										{
											OFFSET 10.739754 -2.369614 9.225399
											CHANNELS 3 Xrotation Yrotation Zrotation
											JOINT LeftHandThumb2
											{
												OFFSET 4.926170 -2.844131 2.844125
												CHANNELS 3 Xrotation Yrotation Zrotation
												JOINT LeftHandThumb3
												{
													OFFSET 4.614891 -2.664413 2.664409
													CHANNELS 3 Xrotation Yrotation Zrotation
													JOINT LeftHandThumb4
													{
														OFFSET 4.432465 -2.559082 2.559083
														CHANNELS 3 Xrotation Yrotation Zrotation
														End Site
														{
															OFFSET 0.000000 0.000000 0.000000
														}
													}
												}
											}
										}
										JOINT LeftHandIndex1
										{
											OFFSET 26.467674 0.187653 6.405298
											CHANNELS 3 Xrotation Yrotation Zrotation
											JOINT LeftHandIndex2
											{
												OFFSET 8.792900 0.000000 0.000000
												CHANNELS 3 Xrotation Yrotation Zrotation
												JOINT LeftHandIndex3
												{
													OFFSET 10.075203 0.000000 0.000000
													CHANNELS 3 Xrotation Yrotation Zrotation
													End Site
													{
														OFFSET 0.000000 0.000000 0.000000
													}
												}
											}
										}
										JOINT LeftHandMiddle1
										{
											OFFSET 25.764404 0.000000 0.000000
											CHANNELS 3 Xrotation Yrotation Zrotation
											JOINT LeftHandMiddle2
											{
												OFFSET 9.393974 0.000000 0.000000
												CHANNELS 3 Xrotation Yrotation Zrotation
												JOINT LeftHandMiddle3
												{
													OFFSET 10.771950 0.000000 0.000000
													CHANNELS 3 Xrotation Yrotation Zrotation
													End Site
													{
														OFFSET 0.000000 0.000000 0.000000
													}
												}
											}
										}
										JOINT LeftHandRing1
										{
											OFFSET 24.660927 0.144547 -6.225808
											CHANNELS 3 Xrotation Yrotation Zrotation
											JOINT LeftHandRing2
											{
												OFFSET 9.393799 0.000000 0.000000
												CHANNELS 3 Xrotation Yrotation Zrotation
												JOINT LeftHandRing3
												{
													OFFSET 9.928497 0.000000 0.000000
													CHANNELS 3 Xrotation Yrotation Zrotation
													End Site
													{
														OFFSET 0.000000 0.000000 0.000000
													}
												}
											}
										}
										JOINT LeftHandPinky1
										{
											OFFSET 23.655350 0.125290 -12.815412
											CHANNELS 3 Xrotation Yrotation Zrotation
											JOINT LeftHandPinky2
											{
												OFFSET 8.425102 0.000000 0.000000
												CHANNELS 3 Xrotation Yrotation Zrotation
												JOINT LeftHandPinky3
												{
													OFFSET 8.147003 0.000000 0.000000
													CHANNELS 3 Xrotation Yrotation Zrotation
													End Site
													{
														OFFSET 0.000000 0.000000 0.000000
													}
												}
											}
										}
									}
								}
							}
						}
					}
					JOINT RightShoulder
					{
						OFFSET -3.249400 8.794197 -1.372250
						CHANNELS 3 Xrotation Yrotation Zrotation
						JOINT RightShoulder_split
						{
							OFFSET -3.249400 8.794197 -1.372250
							CHANNELS 3 Xrotation Yrotation Zrotation
							JOINT RightArm
							{
								OFFSET -11.953299 -2.279007 -0.146200
								CHANNELS 3 Xrotation Yrotation Zrotation
								JOINT RightForeArm
								{
									OFFSET -18.448900 0.000000 0.000000
									CHANNELS 3 Xrotation Yrotation Zrotation
									JOINT RightHand
									{
										OFFSET -29.527802 0.000000 0.000000
										CHANNELS 3 Xrotation Yrotation Zrotation
										JOINT RightHandThumb1
										{
											OFFSET -10.739754 -2.369614 9.225399
											CHANNELS 3 Xrotation Yrotation Zrotation
											JOINT RightHandThumb2
											{
												OFFSET -4.926170 -2.844131 2.844125
												CHANNELS 3 Xrotation Yrotation Zrotation
												JOINT RightHandThumb3
												{
													OFFSET -4.614891 -2.664413 2.664409
													CHANNELS 3 Xrotation Yrotation Zrotation
													JOINT RightHandThumb4
													{
														OFFSET -4.432465 -2.559082 2.559083
														CHANNELS 3 Xrotation Yrotation Zrotation
														End Site
														{
															OFFSET 0.000000 0.000000 0.000000
														}
													}
												}
											}
										}
										JOINT RightHandIndex1
										{
											OFFSET -26.467674 0.187653 6.405298
											CHANNELS 3 Xrotation Yrotation Zrotation
											JOINT RightHandIndex2
											{
												OFFSET -8.792900 0.000000 0.000000
												CHANNELS 3 Xrotation Yrotation Zrotation
												JOINT RightHandIndex3
												{
													OFFSET -10.075203 0.000000 0.000000
													CHANNELS 3 Xrotation Yrotation Zrotation
													End Site
													{
														OFFSET 0.000000 0.000000 0.000000
													}
												}
											}
										}
										JOINT RightHandMiddle1
										{
											OFFSET -25.764404 0.000000 0.000000
											CHANNELS 3 Xrotation Yrotation Zrotation
											JOINT RightHandMiddle2
											{
												OFFSET -9.393974 0.000000 0.000000
												CHANNELS 3 Xrotation Yrotation Zrotation
												JOINT RightHandMiddle3
												{
													OFFSET -10.771950 0.000000 0.000000
													CHANNELS 3 Xrotation Yrotation Zrotation
													End Site
													{
														OFFSET 0.000000 0.000000 0.000000
													}
												}
											}
										}
										JOINT RightHandRing1
										{
											OFFSET -24.660927 0.144547 -6.225808
											CHANNELS 3 Xrotation Yrotation Zrotation
											JOINT RightHandRing2
											{
												OFFSET -9.393799 0.000000 0.000000
												CHANNELS 3 Xrotation Yrotation Zrotation
												JOINT RightHandRing3
												{
													OFFSET -9.928497 0.000000 0.000000
													CHANNELS 3 Xrotation Yrotation Zrotation
													End Site
													{
														OFFSET 0.000000 0.000000 0.000000
													}
												}
											}
										}
										JOINT RightHandPinky1
										{
											OFFSET -23.655350 0.125290 -12.815412
											CHANNELS 3 Xrotation Yrotation Zrotation
											JOINT RightHandPinky2
											{
												OFFSET -8.425102 0.000000 0.000000
												CHANNELS 3 Xrotation Yrotation Zrotation
												JOINT RightHandPinky3
												{
													OFFSET -8.147003 0.000000 0.000000
													CHANNELS 3 Xrotation Yrotation Zrotation
													End Site
													{
														OFFSET 0.000000 0.000000 0.000000
													}
												}
											}
										}
									}
								}
							}
						}
					}
				}
			}
		}
	}
	JOINT LeftUpLeg
	{
		OFFSET 11.394100 -6.187798 -0.413800
		CHANNELS 3 Xrotation Yrotation Zrotation
		JOINT LeftLeg
		{
			OFFSET 0.430247 -32.302673 3.732800
			CHANNELS 3 Xrotation Yrotation Zrotation
			JOINT LeftFoot
			{
				OFFSET -0.430247 -48.264931 -6.423300
				CHANNELS 3 Xrotation Yrotation Zrotation
				JOINT LeftToeBase
				{
					OFFSET 4.230900 -16.068199 23.438400
					CHANNELS 3 Xrotation Yrotation Zrotation
					JOINT LeftToe_End
					{
						OFFSET 4.510700 0.695400 19.974600
						CHANNELS 3 Xrotation Yrotation Zrotation
						End Site
						{
							OFFSET 0.000000 0.000000 0.000000
						}
					}
				}
			}
		}
	}
	JOINT RightUpLeg
	{
		OFFSET -11.333700 -6.187798 -0.413800
		CHANNELS 3 Xrotation Yrotation Zrotation
		JOINT RightLeg
		{
			OFFSET -0.430392 -32.302628 3.733000
			CHANNELS 3 Xrotation Yrotation Zrotation
			JOINT RightFoot
			{
				OFFSET 0.430392 -48.264973 -6.423500
				CHANNELS 3 Xrotation Yrotation Zrotation
				JOINT RightToeBase
				{
					OFFSET -4.230900 -16.068199 23.438400
					CHANNELS 3 Xrotation Yrotation Zrotation
					JOINT RightToe_End
					{
						OFFSET -4.510700 0.695400 19.974600
						CHANNELS 3 Xrotation Yrotation Zrotation
						End Site
						{
							OFFSET 0.000000 0.000000 0.000000
						}
					}
				}
			}
		}
	}
}
MOTION
Frames: 6
Frame Time: 0.016667
0.335128 94.887764 1.593830 26.288464 11.755795 1.974927 11.258896 -1.397659 0.835339 9.276076 2.486270 -1.078451 0.000000 0.000000 0.000000 9.399700 1.253079 -3.812947 -9.096159 7.493533 -0.883477 -27.171305 1.769067 -6.727665 0.000002 -0.000000 -0.000000 0.803797 0.857155 -9.303937 0.000000 0.000000 0.000000 -29.535889 -3.682383 -62.075109 0.000003 -41.672780 0.000009 20.410296 8.999554 -6.096328 -6.000708 -6.126812 4.616751 7.450095 23.644279 2.310972 -5.513977 12.822078 16.414973 0.000000 0.000002 0.000002 1.311402 -4.551194 -15.849352 1.142355 3.477102 -36.365146 -0.000001 -0.000001 0.000001 0.477010 4.520332 -21.613203 1.655969 4.082390 -44.144472 0.000001 0.000002 -0.000001 2.993462 9.713620 -25.720720 1.694442 4.121562 -44.682223 -0.000001 0.000001 -0.000001 -10.154132 18.200859 -22.286603 1.656850 4.083311 -44.156866 0.000000 -0.000001 -0.000007 5.720880 24.427845 1.421180 0.000000 0.000000 0.000000 -24.663782 -14.041413 65.136413 -0.000003 37.034269 0.000009 11.717750 14.064665 -10.776509 -5.141687 1.887949 -6.280712 7.832902 -27.003879 -3.053135 -4.392059 -14.643017 -16.623675 0.000004 -0.000001 -0.000001 9.420639 2.591768 6.997319 0.448770 -1.996466 25.335318 0.000003 0.000000 -0.000001 0.141876 -3.212535 11.503913 0.448783 -1.996459 25.335325 -0.000003 0.000003 0.000002 1.475368 -6.489826 23.742031 0.450084 -1.999225 25.372811 0.000001 0.000002 0.000001 -12.523766 -9.712296 30.059700 0.448772 -1.996456 25.335316 -0.000001 -0.000000 -0.000001 -50.841445 7.042891 16.461936 46.071996 11.215745 -5.495098 5.422231 21.900110 -16.232858 -6.692108 0.231753 -5.917927 -0.000000 -0.000001 -0.000000 -67.904334 -11.462300 -11.535375 37.155058 3.720805 -4.587493 3.401397 -9.685230 -0.703490 -1.292424 0.000003 -0.000170 -0.000000 -0.000000 0.000000 
0.252801 95.988838 2.936256 26.213014 12.069632 2.224919 10.882973 -0.911772 0.859467 9.270625 2.730509 -1.057023 0.000000 0.000000 0.000000 9.403914 1.489585 -3.792869 -9.298694 7.419088 -1.033890 -26.919024 0.659617 -7.172825 0.000001 -0.000002 0.000000 0.819693 0.837064 -9.277591 0.000000 0.000000 0.000000 -28.935711 -1.468107 -61.169767 -0.000000 -41.886647 0.000002 28.314167 8.850575 -10.911683 -6.000702 -6.126812 4.616725 7.450096 23.644281 2.310971 -5.513975 12.822078 16.414977 0.000002 -0.000002 0.000006 1.332690 -4.478274 -16.588812 1.170431 3.514854 -36.825662 -0.000000 0.000000 0.000002 0.494570 4.563967 -22.073454 1.678332 4.105245 -44.457671 0.000001 0.000003 0.000000 3.034028 9.729415 -26.036587 1.710895 4.138082 -44.910758 0.000000 -0.000002 0.000001 -10.114088 18.209727 -22.521301 1.669249 4.096000 -44.330742 0.000002 -0.000001 -0.000004 5.725884 24.411897 1.390779 0.000000 0.000000 0.000000 -24.662573 -15.375738 64.479950 0.000006 37.223189 -0.000017 10.068246 13.567048 -10.840883 -5.210762 2.102420 -6.162671 7.832904 -27.003879 -3.053130 -4.360938 -14.936025 -16.682877 0.000001 0.000000 -0.000001 9.420631 2.591768 6.997320 0.458716 -2.017285 25.618861 -0.000003 0.000000 0.000002 0.144108 -3.223365 11.639855 0.454448 -2.008366 25.497149 0.000001 -0.000000 0.000001 1.483111 -6.495726 23.847366 0.454591 -2.008675 25.501531 0.000000 -0.000000 -0.000000 -12.459874 -9.795179 30.147157 0.452427 -2.004138 25.439805 0.000001 -0.000001 -0.000003 -50.136403 7.785895 15.076924 41.529039 10.792978 -5.404299 8.000814 22.986814 -17.277814 -7.817600 0.308615 -4.261279 -0.000000 0.000002 0.000000 -65.193691 -11.685053 -11.437825 34.842841 3.939178 -4.599866 3.082954 -10.071788 -0.511590 -1.289429 0.000004 -0.000161 0.000000 0.000000 0.000000 
0.374022 96.987175 4.722496 26.028809 12.607932 2.396577 10.468624 -0.284074 0.976046 9.248252 2.964294 -0.996378 0.000000 0.000000 0.000000 9.387519 1.751384 -3.651128 -9.472127 7.196014 -1.232978 -26.658565 -0.579039 -7.669384 0.000000 -0.000001 -0.000000 0.864104 0.779454 -9.200430 0.000000 0.000000 0.000000 -27.914298 0.938277 -60.038490 -0.000005 -42.148872 -0.000009 33.782805 8.315956 -15.356956 -6.000705 -6.126814 4.616732 7.450095 23.644278 2.310973 -5.513974 12.822078 16.414973 -0.000002 -0.000003 0.000000 1.391895 -4.291524 -18.495565 1.247194 3.614895 -38.060065 -0.000001 0.000000 0.000000 0.543330 4.680217 -23.307013 1.740276 4.167288 -45.316540 0.000001 0.000002 0.000000 3.145663 9.771622 -26.902655 1.757057 4.183754 -45.546959 -0.000000 0.000003 0.000003 -10.003783 18.233521 -23.175402 1.704333 4.131506 -44.819746 0.000002 -0.000001 -0.000004 5.738784 24.365537 1.303485 0.000000 0.000000 0.000000 -24.740736 -16.700537 63.463249 0.000000 37.406511 -0.000002 8.192586 12.947381 -10.997474 -5.403159 2.694639 -5.834619 7.832904 -27.003879 -3.053135 -4.276262 -15.746236 -16.846023 0.000004 0.000000 0.000001 9.420631 2.591778 6.997322 0.486709 -2.074617 26.402882 0.000003 0.000000 0.000000 0.150458 -3.253684 12.020588 0.470603 -2.041878 25.954584 0.000000 0.000002 0.000003 1.505058 -6.512329 24.145040 0.467528 -2.035560 25.867895 -0.000003 0.000002 -0.000000 -12.276610 -10.030094 30.396965 0.462948 -2.026083 25.738839 0.000000 0.000001 -0.000001 -49.147173 8.343845 13.851783 37.260082 10.267166 -5.282743 11.274033 24.107825 -19.019517 -10.461580 0.212644 -1.623056 -0.000000 0.000001 0.000000 -62.434083 -11.988929 -11.669564 33.077643 3.855689 -4.606470 2.248029 -10.210125 -0.166018 -1.284338 0.000003 -0.000190 0.000000 0.000000 0.000000 
0.506136 97.907326 6.501762 25.747392 13.366538 2.501114 10.127500 0.453777 1.166801 9.210903 3.190166 -0.903508 0.000000 0.000000 0.000000 9.351835 2.036269 -3.375821 -9.624998 6.855370 -1.477743 -26.488035 -1.955144 -8.210933 0.000002 -0.000003 0.000001 0.932225 0.688370 -9.075184 0.000000 0.000000 0.000000 -26.479349 3.102026 -58.698427 0.000014 -42.442973 0.000010 35.621455 7.717648 -18.708689 -6.000706 -6.126817 4.616737 7.450095 23.644279 2.310972 -5.513974 12.822083 16.414980 -0.000001 -0.000002 0.000003 1.482838 -4.039562 -21.102404 1.362132 3.756752 -39.847689 -0.000001 0.000001 -0.000001 0.618376 4.846609 -25.093458 1.834580 4.258229 -46.600096 -0.000000 -0.000001 -0.000002 3.311833 9.828172 -28.197189 1.828395 4.252393 -46.516798 -0.000000 -0.000002 -0.000004 -9.839231 18.267279 -24.172217 1.759092 4.185745 -45.574816 -0.000001 -0.000002 -0.000002 5.756297 24.290974 1.165177 0.000000 0.000000 0.000000 -24.886535 -18.127291 62.390179 0.000001 37.716701 -0.000016 6.128153 12.171672 -11.084193 -5.697772 3.587373 -5.334419 7.832905 -27.003880 -3.053134 -4.152270 -16.970595 -17.091435 -0.000002 -0.000002 -0.000001 9.420641 2.591788 6.997331 0.530467 -2.160484 27.587342 -0.000002 -0.000000 0.000000 0.160630 -3.300174 12.605214 0.496256 -2.093719 26.665364 0.000000 -0.000002 0.000000 1.539352 -6.537917 24.607524 0.488135 -2.077485 26.442266 -0.000002 0.000003 0.000004 -11.985063 -10.395300 30.791097 0.479779 -2.060611 26.210836 -0.000001 0.000000 0.000003 -48.369149 8.751436 12.680093 33.412234 9.404594 -5.167580 14.095239 26.020241 -20.578322 -11.244604 -0.110187 0.720439 -0.000000 -0.000001 -0.000000 -59.653738 -12.446766 -11.999870 31.407768 3.982455 -4.610209 1.386905 -10.655784 0.177072 -1.278605 0.000004 -0.000168 0.000000 -0.000001 -0.000000 
0.640108 98.650337 8.269470 25.330038 14.179160 2.592970 9.971490 1.263992 1.416234 9.162350 3.405352 -0.814592 0.000000 0.000000 0.000000 9.299429 2.332557 -3.026502 -9.786415 6.437162 -1.739178 -26.535422 -3.323929 -8.836772 0.000002 -0.000002 -0.000000 1.019371 0.567892 -8.904579 0.000000 0.000000 0.000000 -24.750299 5.026877 -57.223106 0.000009 -42.830375 0.000014 34.510227 7.719825 -21.204104 -6.000702 -6.126807 4.616749 7.450095 23.644281 2.310971 -5.513978 12.822080 16.414977 0.000000 -0.000001 0.000001 1.594851 -3.770047 -23.942228 1.504069 3.920209 -41.967766 0.000002 0.000001 -0.000001 0.714047 5.040745 -27.212264 1.953943 4.367706 -48.187230 0.000002 0.000001 -0.000001 3.517066 9.889868 -29.798001 1.920476 4.337624 -47.746318 0.000002 0.000001 -0.000003 -9.636986 18.306131 -25.435245 1.830629 4.254508 -46.546916 -0.000002 0.000001 -0.000001 5.775056 24.190534 0.981697 0.000000 0.000000 0.000000 -25.353341 -19.271678 60.878111 -0.000006 38.352748 0.000004 3.564457 11.463274 -11.231973 -6.074164 4.703077 -4.699199 7.832910 -27.003880 -3.053134 -4.003434 -18.506058 -17.397480 -0.000001 0.000000 -0.000000 9.420629 2.591772 6.997323 0.587841 -2.266796 29.072297 0.000002 0.000000 0.000000 0.174319 -3.359489 13.353059 0.530470 -2.160479 27.587351 -0.000003 -0.000002 -0.000001 1.584115 -6.570701 25.207496 0.515775 -2.132128 27.194919 -0.000003 0.000003 0.000003 -11.595181 -10.868187 31.312405 0.502437 -2.105986 26.834213 -0.000001 -0.000001 -0.000002 -48.003218 8.981081 11.638284 30.760443 8.608642 -5.155217 15.023833 26.999547 -20.997260 -9.540508 -0.319545 2.680082 0.000000 0.000002 0.000000 -57.077357 -13.052653 -12.396473 30.173313 4.339226 -4.605327 0.402008 -11.272922 0.446274 -1.273875 -0.000003 -0.000158 0.000000 0.000000 0.000000 
0.782121 99.145317 10.026604 24.821855 14.994955 2.601820 10.066999 2.108482 1.706471 9.100977 3.625112 -0.668953 0.000000 0.000000 0.000000 9.229840 2.660004 -2.563397 -9.837895 6.017705 -1.993812 -26.748766 -4.625807 -9.443237 0.000001 0.000001 0.000000 1.120957 0.422146 -8.691320 0.000000 0.000000 0.000000 -22.881916 6.478802 -55.810651 -0.000006 -43.215017 -0.000009 31.033408 7.886885 -22.853678 -6.000705 -6.126812 4.616755 7.450095 23.644281 2.310973 -5.513978 12.822080 16.414977 -0.000003 -0.000003 0.000005 1.709294 -3.527826 -26.548349 1.659876 4.086409 -44.199339 -0.000000 -0.000001 -0.000001 0.822456 5.241051 -29.442664 2.090530 4.485802 -49.956840 0.000002 -0.000001 -0.000002 3.745087 9.948052 -31.582955 2.028696 4.433243 -49.161519 0.000000 0.000001 0.000001 -9.413116 18.345951 -26.887892 1.916006 4.333561 -47.687141 0.000000 0.000000 -0.000000 5.791594 24.066544 0.758856 0.000000 0.000000 0.000000 -25.787219 -20.375586 59.503672 0.000008 39.185424 0.000001 1.115769 10.565912 -11.602833 -6.511108 5.964649 -3.966927 7.832908 -27.003879 -3.053134 -3.843401 -20.249412 -17.743136 -0.000002 0.000001 0.000002 9.420639 2.591782 6.997318 0.656251 -2.385608 30.757704 0.000001 0.000000 0.000002 0.191230 -3.428251 14.223396 0.572348 -2.238738 28.678363 0.000003 -0.000002 0.000001 1.637537 -6.608868 25.917472 0.549822 -2.197081 28.096154 0.000002 0.000000 0.000004 -11.116593 -11.425696 31.943880 0.530470 -2.160481 27.587366 0.000001 -0.000002 -0.000005 -47.718584 9.075850 10.731922 28.586696 8.156775 -5.163027 15.347935 26.941314 -20.895642 -7.751938 -0.358157 4.407229 0.000000 0.000000 0.000000 -54.873313 -13.744192 -12.802151 29.636898 4.759505 -4.584999 -0.823104 -11.941346 0.638684 -1.275061 -0.000007 -0.000167 0.000000 -0.000000 0.000000 
